# xmcd
#
# Track frame offsets:
#   150
#   15444
#   30776
#   45278
#   62652
#   79912
#   95445
#   110283
#   124898
#   142311
#   163119
#   177217
#
# Disc length: 2568 seconds
#
# Revision: 0
# Processed by: cddbd v1.5.1PL2 Copyright (c) Steve Scherf et al.
# Submitted via: GXTranscoder 2.0.1939
#
DISCID=910a060c
DTITLE=Mia Aegeter - The Way I Am
DYEAR=2005
DGENRE=Blues
TTITLE0=
TTITLE1=
TTITLE2=
TTITLE3=
TTITLE4=
TTITLE5=
TTITLE6=
TTITLE7=
TTITLE8=
TTITLE9=
TTITLE10=
TTITLE11=Hie u jetzt
EXTD=
EXTT0=
EXTT1=
EXTT2=
EXTT3=
EXTT4=
EXTT5=
EXTT6=
EXTT7=
EXTT8=
EXTT9=
EXTT10=
EXTT11=
PLAYORDER=
